HIERARCHY
ROOT Hips
{
	OFFSET 0.000000 0.000000 0.000000
	CHANNELS 6 Xposition Yposition Zposition Zrotation Yrotation Xrotation 
	JOINT LeftUpLeg_virtual
	{
		OFFSET 0.000000 0.000000 0.000000
		CHANNELS 3 Zrotation Yrotation Xrotation
		JOINT LeftUpLeg
		{
			OFFSET 10.205400 -3.823500 0.155100
			CHANNELS 3 Zrotation Yrotation Xrotation
			JOINT LeftLeg
			{
				OFFSET 0.708757 -12.982077 0.567790
				CHANNELS 3 Zrotation Yrotation Xrotation
				JOINT LeftFoot
				{
					OFFSET -0.708756 -10.717838 -2.184338
					CHANNELS 3 Zrotation Yrotation Xrotation
					JOINT LeftToeBase
					{
						OFFSET 0.108149 -7.191104 7.560241
						CHANNELS 3 Zrotation Yrotation Xrotation
						End Site
						{
							OFFSET 0.000000 0.000000 0.000000
						}
					}
				}
			}
		}
	}
	JOINT RightUpLeg_virtual
	{
		OFFSET 0.000000 0.000000 0.000000
		CHANNELS 3 Zrotation Yrotation Xrotation
		JOINT RightUpLeg
		{
			OFFSET -10.205400 -3.823500 0.005500
			CHANNELS 3 Zrotation Yrotation Xrotation
			JOINT RightLeg
			{
				OFFSET -0.708756 -12.982134 0.610632
				CHANNELS 3 Zrotation Yrotation Xrotation
				JOINT RightFoot
				{
					OFFSET 0.708754 -10.717769 -1.945823
					CHANNELS 3 Zrotation Yrotation Xrotation
					JOINT RightToeBase
					{
						OFFSET -0.108140 -7.191069 7.372968
						CHANNELS 3 Zrotation Yrotation Xrotation
						End Site
						{
							OFFSET 0.000000 0.000000 0.000000
						}
					}
				}
			}
		}
	}
	JOINT Spine_virtual
	{
		OFFSET 0.000000 0.000000 0.000000
		CHANNELS 3 Zrotation Yrotation Xrotation
		JOINT Spine
		{
			OFFSET 0.000000 6.876099 0.125700
			CHANNELS 3 Zrotation Yrotation Xrotation
			JOINT Spine1
			{
				OFFSET 0.000000 8.022060 0.146608
				CHANNELS 3 Zrotation Yrotation Xrotation
				JOINT Spine2
				{
					OFFSET 0.000000 9.168068 0.167552
					CHANNELS 3 Zrotation Yrotation Xrotation
					JOINT Neck_virtual
					{
						OFFSET 0.000000 0.000000 0.000000
						CHANNELS 3 Zrotation Yrotation Xrotation
						JOINT Neck
						{
							OFFSET 0.000000 10.314075 0.188496
							CHANNELS 3 Zrotation Yrotation Xrotation
							JOINT Head
							{
								OFFSET 0.000000 7.643700 -2.377400
								CHANNELS 3 Zrotation Yrotation Xrotation
								End Site
								{
									OFFSET 0.000000 0.000000 0.000000
								}
							}
						}
					}
					JOINT LeftShoulder_virtual
					{
						OFFSET 0.000000 0.000000 0.000000
						CHANNELS 3 Zrotation Yrotation Xrotation
						JOINT LeftShoulder
						{
							OFFSET 4.392200 8.824978 0.174984
							CHANNELS 3 Zrotation Yrotation Xrotation
							JOINT LeftArm
							{
								OFFSET 8.771219 -2.981674 -0.026999
								CHANNELS 3 Zrotation Yrotation Xrotation
								JOINT LeftForeArm
								{
									OFFSET 8.512804 0.000000 -0.000000
									CHANNELS 3 Zrotation Yrotation Xrotation
									JOINT LeftHand
									{
										OFFSET 18.484802 0.000000 -0.000000
										CHANNELS 3 Zrotation Yrotation Xrotation
										End Site
										{
											OFFSET 0.000000 0.000000 0.000000
										}
									}
								}
							}
						}
					}
					JOINT RightShoulder_virtual
					{
						OFFSET 0.000000 0.000000 0.000000
						CHANNELS 3 Zrotation Yrotation Xrotation
						JOINT RightShoulder
						{
							OFFSET -4.392200 8.824993 0.141379
							CHANNELS 3 Zrotation Yrotation Xrotation
							JOINT RightArm
							{
								OFFSET -8.771282 -2.981682 -0.094208
								CHANNELS 3 Zrotation Yrotation Xrotation
								JOINT RightForeArm
								{
									OFFSET -8.494598 0.000000 0.000000
									CHANNELS 3 Zrotation Yrotation Xrotation
									JOINT RightHand
									{
										OFFSET -18.483803 0.000000 0.000001
										CHANNELS 3 Zrotation Yrotation Xrotation
										End Site
										{
											OFFSET 0.000000 0.000000 0.000000
										}
									}
								}
							}
						}
					}
				}
			}
		}
	}
}
MOTION
Frames: 14
Frame Time: 0.033333
-3.892768 36.171162 -27.330515 179.591136 -2.405677 -177.969294 -1.147169 -3.706621 10.728194 -8.230317 8.301470 -19.522110 13.062342 3.348128 21.890292 -9.703085 -6.848197 11.347811 0.000000 0.000000 0.000000 2.313185 -4.684912 10.322543 2.124139 1.181150 -15.362055 -8.553612 4.748434 20.808216 7.806041 1.985188 9.223723 0.000000 0.000000 0.000000 1.876138 -1.203016 -8.752800 -1.990491 0.234572 -5.498097 -0.508013 -2.301535 9.051625 0.059090 -0.044565 0.293818 -1.007800 -0.466716 11.563832 -0.318138 -4.242003 1.744928 0.000000 0.000000 0.000000 0.642687 0.310724 9.111639 -13.963664 -7.381491 3.280760 -54.612321 22.944395 21.626940 1.651649 -49.848893 2.279710 0.000000 0.000000 0.000000 -2.989171 1.482162 8.478360 27.420602 5.173406 4.051685 51.359969 -15.520676 26.912711 -7.195103 33.950917 -4.237990 0.000000 0.000000 0.000000 
-3.886171 36.170315 -27.314829 179.732781 -3.045214 -177.049281 -1.858682 -2.600297 11.684382 -8.350502 9.105494 -18.671367 13.699650 2.177202 22.563499 -9.316999 -7.290600 12.865561 0.000000 0.000000 0.000000 2.668795 -5.855959 11.223995 1.864920 0.221445 -14.489953 -8.678969 5.606729 21.665751 7.487338 2.408515 10.603744 0.000000 0.000000 0.000000 2.013441 -1.239178 -9.381519 -1.965563 0.009136 -5.809162 -0.561321 -2.521574 8.843345 0.016184 -0.099780 0.397661 -0.968162 -0.332621 11.753658 -0.257010 -4.176848 1.817937 0.000000 0.000000 0.000000 0.528396 0.136131 9.346979 -13.920136 -7.349283 3.292037 -54.567918 22.940104 21.618650 1.871298 -49.913117 2.054030 0.000000 0.000000 0.000000 -3.020550 1.543346 8.575556 27.515301 5.193462 4.103314 51.327649 -15.520743 26.921710 -7.169941 33.933001 -4.199337 0.000000 0.000000 0.000000 
-3.880066 36.170750 -27.306589 179.731906 -3.008493 -177.065264 -1.844596 -2.627901 11.662753 -8.390601 9.160245 -18.642713 13.747032 2.160912 22.571830 -9.334114 -7.276466 12.869926 0.000000 0.000000 0.000000 2.673309 -5.882065 11.201404 1.857741 0.228835 -14.531849 -8.681053 5.617685 21.733344 7.543963 2.392566 10.595648 0.000000 0.000000 0.000000 2.096023 -1.511313 -9.090595 -1.954995 0.203999 -5.932779 -0.537779 -2.443921 8.258421 0.005280 -0.190047 0.597961 -1.067351 -0.120854 11.929709 -0.310116 -4.206018 2.329767 0.000000 0.000000 0.000000 0.478853 0.128717 9.729313 -13.983789 -7.256583 3.193633 -54.413071 22.942389 21.752512 1.921465 -50.032737 1.991487 0.000000 0.000000 0.000000 -3.037231 1.720619 8.972493 27.566415 5.287969 4.057606 51.266509 -15.533761 27.037268 -7.215267 34.008905 -4.414895 0.000000 0.000000 0.000000 
-3.876329 36.172642 -27.301592 179.726907 -2.968530 -177.070031 -1.834495 -2.638589 11.635494 -8.437860 9.236997 -18.618481 13.799884 2.157233 22.598398 -9.363948 -7.240800 12.854981 0.000000 0.000000 0.000000 2.687505 -5.896470 11.188249 1.833501 0.243224 -14.595894 -8.672988 5.663497 21.809757 7.616040 2.340985 10.598082 0.000000 0.000000 0.000000 2.082398 -1.292306 -9.156508 -1.960112 0.093568 -5.873676 -0.542227 -2.424876 8.433521 0.006177 -0.178085 0.488066 -1.012921 -0.332234 11.904595 -0.312234 -4.160729 2.295707 0.000000 0.000000 0.000000 0.496949 0.019092 9.506885 -13.960133 -7.353446 3.333475 -54.420376 22.892458 21.810003 1.755850 -49.877173 2.153038 0.000000 0.000000 0.000000 -3.034999 1.558317 8.845090 27.572077 5.336724 4.187285 51.251598 -15.493292 27.123345 -7.256139 33.984446 -4.362886 0.000000 0.000000 0.000000 
-3.872834 36.174728 -27.294529 179.737166 -2.887112 -177.072490 -1.830740 -2.639825 11.602874 -8.472336 9.322664 -18.610445 13.871852 2.159409 22.647246 -9.413117 -7.218706 12.822566 0.000000 0.000000 0.000000 2.708313 -5.904511 11.175047 1.812286 0.252481 -14.672621 -8.660243 5.706225 21.893698 7.700633 2.271397 10.610865 0.000000 0.000000 0.000000 2.114584 -1.322523 -9.070490 -1.977226 0.098385 -5.971674 -0.544891 -2.417836 8.303752 -0.000418 -0.191600 0.632153 -1.060795 -0.374480 11.949372 -0.293832 -4.109391 2.361043 0.000000 0.000000 0.000000 0.495692 0.123478 9.759143 -13.984960 -7.307534 3.163656 -54.382478 22.810393 21.803116 1.791602 -50.003405 2.102903 0.000000 0.000000 0.000000 -3.026535 1.665589 8.967998 27.558830 5.284000 4.029875 51.248074 -15.533372 26.982077 -7.123100 34.148186 -4.287848 0.000000 0.000000 0.000000 
-3.866562 36.175247 -27.285664 179.760088 -2.822939 -177.071999 -1.826440 -2.631072 11.571956 -8.488410 9.415740 -18.620786 13.962226 2.154875 22.715650 -9.473096 -7.210603 12.780154 0.000000 0.000000 0.000000 2.747787 -5.905659 11.164118 1.811900 0.245479 -14.763131 -8.650879 5.754903 21.984152 7.802605 2.182756 10.635429 0.000000 0.000000 0.000000 2.161798 -1.313720 -9.187514 -1.975279 0.029544 -5.953346 -0.591826 -2.405285 8.508044 0.023645 -0.190156 0.585899 -0.991056 -0.191266 11.879866 -0.381037 -4.134260 2.186075 0.000000 0.000000 0.000000 0.510431 0.094702 9.572965 -14.015980 -7.205864 3.342937 -54.441785 22.614932 21.896851 1.974904 -50.016574 1.914485 0.000000 0.000000 0.000000 -3.045083 1.645124 8.817172 27.551904 5.311267 4.107858 51.224756 -15.496671 27.015164 -7.201130 34.197285 -4.421736 0.000000 0.000000 0.000000 
-3.856947 36.175880 -27.279016 179.765866 -2.738209 -177.072449 -1.831941 -2.618263 11.548681 -8.478322 9.505752 -18.633690 14.029399 2.192705 22.796293 -9.559913 -7.160343 12.737391 0.000000 0.000000 0.000000 2.758433 -5.907362 11.158504 1.837517 0.221750 -14.860204 -8.615571 5.861248 22.077471 7.921478 2.038845 10.684228 0.000000 0.000000 0.000000 2.184746 -1.403693 -9.143857 -1.969577 0.055761 -6.045608 -0.554467 -2.373723 8.412946 -0.023513 -0.182254 0.631271 -1.075595 -0.321474 11.993701 -0.362318 -4.063869 2.296832 0.000000 0.000000 0.000000 0.484498 0.149572 9.768816 -13.977921 -7.103289 3.111022 -54.394442 22.561421 21.946923 1.807412 -50.103809 2.089403 0.000000 0.000000 0.000000 -3.034998 1.648847 9.016288 27.573004 5.354599 4.012920 51.305437 -15.426749 26.753453 -7.102832 34.339934 -4.342578 0.000000 0.000000 0.000000 
-3.848650 36.177963 -27.281277 179.798542 -2.664289 -177.062491 -1.839586 -2.601031 11.533813 -8.442081 9.598311 -18.643964 14.100707 2.221544 22.861669 -9.658110 -7.133985 12.704396 0.000000 0.000000 0.000000 2.792722 -5.913352 11.165203 1.885121 0.170849 -14.975530 -8.598453 5.986807 22.181961 8.034165 1.891406 10.751356 0.000000 0.000000 0.000000 2.226156 -1.618416 -9.473200 -1.976247 0.035755 -6.138757 -0.566767 -2.287796 9.446921 0.051802 -0.103568 0.278888 -1.085097 -0.037378 11.800333 -0.433184 -4.094464 1.924816 0.000000 0.000000 0.000000 0.442030 0.264117 9.388964 -13.978779 -6.989276 3.207929 -54.510971 22.310215 22.064576 1.935331 -50.100329 1.983481 0.000000 0.000000 0.000000 -3.152387 1.533038 8.702543 27.544100 5.480860 4.027439 51.361107 -15.325382 26.800937 -7.116474 34.352795 -4.523372 0.000000 0.000000 0.000000 
-3.845636 36.180943 -27.289427 179.811410 -2.613268 -177.054541 -1.863768 -2.565418 11.515992 -8.378593 9.689413 -18.631504 14.131407 2.289344 22.914274 -9.778752 -7.067934 12.685020 0.000000 0.000000 0.000000 2.803029 -5.905018 11.191601 1.946261 0.104492 -15.104697 -8.569035 6.166307 22.305584 8.140225 1.692739 10.823855 0.000000 0.000000 0.000000 2.211581 -1.401283 -9.445170 -1.983190 -0.039349 -6.022338 -0.604560 -2.343028 9.083322 -0.014467 -0.149386 0.478602 -1.002655 -0.316476 11.818261 -0.325896 -3.941260 1.981582 0.000000 0.000000 0.000000 0.512487 0.233116 9.261643 -13.949942 -6.954117 3.260644 -54.493865 22.177634 22.031298 1.813405 -50.056633 2.125760 0.000000 0.000000 0.000000 -3.027859 1.472077 8.587186 27.488508 5.562918 4.115160 51.328537 -15.296161 26.885860 -7.070180 34.426114 -4.332285 0.000000 0.000000 0.000000 
-3.846686 36.185143 -27.302864 179.828772 -2.582040 -177.051481 -1.900708 -2.493212 11.497885 -8.291731 9.780897 -18.613584 14.143278 2.334652 22.953435 -9.890262 -7.011692 12.676604 0.000000 0.000000 0.000000 2.813094 -5.867246 11.234924 2.026046 0.015701 -15.238984 -8.553703 6.352735 22.452027 8.227461 1.481118 10.900214 0.000000 0.000000 0.000000 2.172343 -1.124297 -9.207944 -2.012702 -0.101326 -6.222894 -0.575852 -2.427444 8.545128 0.011548 -0.165140 0.702909 -1.058370 -0.406287 12.043322 -0.276003 -3.858879 2.448200 0.000000 0.000000 0.000000 0.494489 0.127316 9.767868 -14.021817 -7.037925 3.162808 -54.415250 22.105511 22.073570 2.082681 -50.237523 1.912707 0.000000 0.000000 0.000000 -3.089314 1.571991 8.986452 27.429638 5.503820 4.028854 51.576913 -15.354670 26.506431 -7.201658 34.770089 -4.400714 0.000000 0.000000 0.000000 
-3.846154 36.194721 -27.314476 179.848279 -2.558564 -177.045743 -1.948454 -2.385851 11.494534 -8.179150 9.860041 -18.617489 14.121822 2.362876 22.974941 -10.017569 -6.965072 12.669289 0.000000 0.000000 0.000000 2.821932 -5.785489 11.294858 2.118245 -0.086963 -15.388635 -8.547929 6.534517 22.607820 8.291982 1.230515 10.981089 0.000000 0.000000 0.000000 2.137615 -1.074345 -9.185919 -1.984841 -0.107647 -6.320661 -0.586081 -2.481688 8.527962 0.018504 -0.189481 0.775289 -1.074150 -0.287151 12.074986 -0.238017 -3.764308 2.550478 0.000000 0.000000 0.000000 0.471702 0.028542 9.767170 -14.043583 -6.846278 3.186029 -54.281139 21.983176 22.160025 2.104173 -50.383420 2.091951 0.000000 0.000000 0.000000 -3.152231 1.491796 9.049202 27.372014 5.679650 3.993032 51.797057 -15.352539 26.441790 -7.338887 34.969387 -4.477977 0.000000 0.000000 0.000000 
-3.839873 36.209766 -27.318830 179.871037 -2.546677 -177.035771 -1.993635 -2.267617 11.514384 -8.045288 9.917636 -18.657845 14.058861 2.356237 22.970811 -10.115130 -6.908955 12.657239 0.000000 0.000000 0.000000 2.842380 -5.668664 11.364368 2.218685 -0.203344 -15.539643 -8.540521 6.685887 22.725506 8.360055 0.957085 11.073250 0.000000 0.000000 0.000000 2.098569 -0.903004 -9.295194 -1.950654 -0.182081 -6.342039 -0.631849 -2.510619 8.900098 -0.083137 -0.126466 0.434750 -1.024185 -0.434983 12.182907 -0.220857 -3.660861 2.381754 0.000000 0.000000 0.000000 0.507220 -0.106161 9.667031 -13.988305 -6.709967 3.303139 -54.122518 21.935730 22.478738 2.157423 -50.677357 1.999146 0.000000 0.000000 0.000000 -3.062942 1.497558 8.943171 27.284900 5.570514 4.120152 52.113473 -15.459242 26.173959 -7.494521 35.318918 -4.534973 0.000000 0.000000 0.000000 
-3.826256 36.230373 -27.307253 179.888946 -2.532492 -177.043025 -2.033123 -2.173723 11.573871 -7.904954 9.951032 -18.756014 13.939292 2.333618 22.941624 -10.187249 -6.841896 12.654454 0.000000 0.000000 0.000000 2.876970 -5.577955 11.447425 2.299088 -0.338837 -15.692769 -8.528762 6.832028 22.784700 8.430857 0.645504 11.203654 0.000000 0.000000 0.000000 2.067888 -1.134075 -9.063529 -1.925084 0.014971 -6.563081 -0.592679 -2.499215 8.688620 -0.027063 -0.179969 0.610868 -1.124697 -0.235058 12.279711 -0.152480 -3.478165 2.521517 0.000000 0.000000 0.000000 0.409976 -0.097234 9.971508 -14.023479 -6.482092 3.260655 -53.847702 21.777706 22.638377 2.359215 -51.476376 1.933962 0.000000 0.000000 0.000000 -3.158915 1.483481 9.337956 27.105585 5.680908 4.020122 52.387390 -15.358486 25.740521 -7.633133 35.794576 -4.586889 0.000000 0.000000 0.000000 
-3.806155 36.257847 -27.265572 179.906800 -2.592087 -177.056426 -2.068067 -2.157406 11.675486 -7.745450 9.951144 -18.917916 13.737753 2.298502 22.865098 -10.192184 -6.728716 12.652215 0.000000 0.000000 0.000000 2.937133 -5.551477 11.528981 2.346930 -0.487616 -15.868112 -8.499804 6.960186 22.750387 8.547611 0.322796 11.361660 0.000000 0.000000 0.000000 1.947289 -0.788007 -8.982000 -1.916953 0.066642 -6.620472 -0.619285 -2.520612 8.872458 0.005198 -0.108862 0.597096 -1.071591 -0.703922 12.280619 -0.103822 -3.255859 2.484699 0.000000 0.000000 0.000000 0.403508 -0.246308 9.977609 -13.935935 -6.728641 3.339343 -53.515191 21.465302 22.783319 2.116047 -52.271639 2.313619 0.000000 0.000000 0.000000 -3.169324 1.173118 9.018290 26.956260 5.643451 4.168476 52.631081 -15.417112 25.586915 -7.730426 35.960488 -4.614308 0.000000 0.000000 0.000000 
